# xmcd
#
# Track frame offsets: 
#        150
#        19769
#        40959
#        62996
#        82201
#        105929
#        126116
#        148788
#        163145
#        178275
#        197355
#        214597
#        235308
#        256894
#        278802
#
# Disc length: 3985 seconds
#
# Revision: 0
# Processed by: cddbd v1.5.2PL0 Copyright (c) Steve Scherf et al.
# Submitted via: ExactAudioCopy v1.0b3
#
DISCID=da0f8f0f
DTITLE=群星 - DTS ES 正品 唱给男人的歌CD1
DYEAR=2013
DGENRE=DTS ES
TTITLE0=爱的越深伤的越深
TTITLE1=春天里
TTITLE2=幸福元素
TTITLE3=你把爱情给了谁
TTITLE4=小三
TTITLE5=死而无憾
TTITLE6=你在我心中永远最美
TTITLE7=毒药
TTITLE8=爱情买卖
TTITLE9=我的眼泪只为你流
TTITLE10=最后的枫叶
TTITLE11=可惜不是你
TTITLE12=多情总为无情伤
TTITLE13=屋檐下的思念
TTITLE14=想和你一起慢慢变老
EXTD=
EXTT0=
EXTT1=
EXTT2=
EXTT3=
EXTT4=
EXTT5=
EXTT6=
EXTT7=
EXTT8=
EXTT9=
EXTT10=
EXTT11=
EXTT12=
EXTT13=
EXTT14=
PLAYORDER=
